<mxfile host="app.diagrams.net" modified="2023-06-23T23:48:03.246Z" agent="Mozilla/5.0 (Windows NT 10.0; Win64; x64) AppleWebKit/537.36 (KHTML, like Gecko) Chrome/114.0.0.0 Safari/537.36" etag="Nj6SFLQ2zojSscieXzCd" version="21.5.0" type="device">
  <diagram name="Page-1" id="fptZHNx88EkXkDG7EKGT">
    <mxGraphModel dx="1434" dy="764" grid="1" gridSize="10" guides="1" tooltips="1" connect="1" arrows="1" fold="1" page="1" pageScale="1" pageWidth="827" pageHeight="1169" background="#FFFFFF" math="0" shadow="0">
      <root>
        <mxCell id="0" />
        <mxCell id="1" parent="0" />
        <mxCell id="Of6g8ZKLSWK-I_6D6hID-1" value="Skylight" style="swimlane;whiteSpace=wrap;html=1;strokeWidth=3;" parent="1" vertex="1">
          <mxGeometry x="40" y="40" width="760" height="920" as="geometry" />
        </mxCell>
        <mxCell id="Of6g8ZKLSWK-I_6D6hID-5" value="Presentation Layer&lt;br&gt;&lt;br&gt;(Frameworks, Routing, Components, Layouts, Form Submission)" style="rounded=0;whiteSpace=wrap;html=1;strokeWidth=3;" parent="Of6g8ZKLSWK-I_6D6hID-1" vertex="1">
          <mxGeometry x="40" y="200" width="520" height="80" as="geometry" />
        </mxCell>
        <mxCell id="Of6g8ZKLSWK-I_6D6hID-6" value="View Layer&lt;br&gt;&lt;br&gt;(Read-Only Display, Data Model Views)" style="rounded=0;whiteSpace=wrap;html=1;strokeWidth=3;" parent="Of6g8ZKLSWK-I_6D6hID-1" vertex="1">
          <mxGeometry x="40" y="80" width="240" height="80" as="geometry" />
        </mxCell>
        <mxCell id="Of6g8ZKLSWK-I_6D6hID-7" value="Form Layer&lt;br&gt;&lt;br&gt;(Input, Controls, Form Models, Validation)" style="rounded=0;whiteSpace=wrap;html=1;strokeWidth=3;" parent="Of6g8ZKLSWK-I_6D6hID-1" vertex="1">
          <mxGeometry x="310" y="80" width="250" height="80" as="geometry" />
        </mxCell>
        <mxCell id="Of6g8ZKLSWK-I_6D6hID-8" value="Communication Layer&lt;br&gt;&lt;br&gt;(Web API Requestors, HTTP Clients, Proxies, Caching, Connection Management, Security)" style="rounded=0;whiteSpace=wrap;html=1;strokeWidth=3;" parent="Of6g8ZKLSWK-I_6D6hID-1" vertex="1">
          <mxGeometry x="40" y="320" width="520" height="80" as="geometry" />
        </mxCell>
        <mxCell id="Of6g8ZKLSWK-I_6D6hID-9" value="Front-End Core&lt;br&gt;&lt;br&gt;(Cross-cutting Concerns, Models, Shared Resources, Styling, Assets, Interface Definitions)" style="rounded=0;whiteSpace=wrap;html=1;strokeWidth=3;" parent="Of6g8ZKLSWK-I_6D6hID-1" vertex="1">
          <mxGeometry x="600" y="80" width="140" height="320" as="geometry" />
        </mxCell>
        <mxCell id="Of6g8ZKLSWK-I_6D6hID-10" value="API Layer&lt;br&gt;&lt;br&gt;(Web API Controllers, ASP.NET Bootstrapping, Model Mappings, Dependency Injection)" style="rounded=0;whiteSpace=wrap;html=1;strokeWidth=3;" parent="Of6g8ZKLSWK-I_6D6hID-1" vertex="1">
          <mxGeometry x="40" y="440" width="520" height="80" as="geometry" />
        </mxCell>
        <mxCell id="Of6g8ZKLSWK-I_6D6hID-11" value="Service Layer&lt;br&gt;&lt;br&gt;(Business Logic, Interface Implementations)" style="rounded=0;whiteSpace=wrap;html=1;strokeWidth=3;" parent="Of6g8ZKLSWK-I_6D6hID-1" vertex="1">
          <mxGeometry x="40" y="560" width="520" height="80" as="geometry" />
        </mxCell>
        <mxCell id="Of6g8ZKLSWK-I_6D6hID-12" value="Data Access Layer&lt;br&gt;&lt;br&gt;(Database Manipulation, Repositories, Transaction Management, ORM Utilization)" style="rounded=0;whiteSpace=wrap;html=1;strokeWidth=3;" parent="Of6g8ZKLSWK-I_6D6hID-1" vertex="1">
          <mxGeometry x="40" y="680" width="520" height="80" as="geometry" />
        </mxCell>
        <mxCell id="Of6g8ZKLSWK-I_6D6hID-13" value="Database&lt;br&gt;&lt;br&gt;(Relational Database, Data Storage)" style="rounded=0;whiteSpace=wrap;html=1;strokeWidth=3;" parent="Of6g8ZKLSWK-I_6D6hID-1" vertex="1">
          <mxGeometry x="40" y="800" width="520" height="80" as="geometry" />
        </mxCell>
        <mxCell id="Of6g8ZKLSWK-I_6D6hID-14" value="Back-End Core&lt;br&gt;&lt;br&gt;(Cross-cutting Concerns, Models, Shared Resources, Interface Definitions)" style="rounded=0;whiteSpace=wrap;html=1;strokeWidth=3;" parent="Of6g8ZKLSWK-I_6D6hID-1" vertex="1">
          <mxGeometry x="600" y="440" width="140" height="440" as="geometry" />
        </mxCell>
        <mxCell id="Of6g8ZKLSWK-I_6D6hID-16" value="" style="endArrow=classic;startArrow=classic;html=1;rounded=0;entryX=1;entryY=0.5;entryDx=0;entryDy=0;exitX=0;exitY=0.5;exitDx=0;exitDy=0;" parent="Of6g8ZKLSWK-I_6D6hID-1" source="Of6g8ZKLSWK-I_6D6hID-7" target="Of6g8ZKLSWK-I_6D6hID-6" edge="1">
          <mxGeometry width="50" height="50" relative="1" as="geometry">
            <mxPoint x="440" y="300" as="sourcePoint" />
            <mxPoint x="490" y="250" as="targetPoint" />
          </mxGeometry>
        </mxCell>
        <mxCell id="Of6g8ZKLSWK-I_6D6hID-17" value="" style="endArrow=classic;startArrow=classic;html=1;rounded=0;entryX=0.5;entryY=1;entryDx=0;entryDy=0;exitX=0.5;exitY=0;exitDx=0;exitDy=0;" parent="Of6g8ZKLSWK-I_6D6hID-1" source="Of6g8ZKLSWK-I_6D6hID-5" target="Of6g8ZKLSWK-I_6D6hID-6" edge="1">
          <mxGeometry width="50" height="50" relative="1" as="geometry">
            <mxPoint x="440" y="300" as="sourcePoint" />
            <mxPoint x="490" y="250" as="targetPoint" />
            <Array as="points">
              <mxPoint x="300" y="180" />
              <mxPoint x="160" y="180" />
            </Array>
          </mxGeometry>
        </mxCell>
        <mxCell id="Of6g8ZKLSWK-I_6D6hID-18" value="" style="endArrow=classic;startArrow=classic;html=1;rounded=0;entryX=0.5;entryY=1;entryDx=0;entryDy=0;exitX=0.5;exitY=0;exitDx=0;exitDy=0;" parent="Of6g8ZKLSWK-I_6D6hID-1" source="Of6g8ZKLSWK-I_6D6hID-5" target="Of6g8ZKLSWK-I_6D6hID-7" edge="1">
          <mxGeometry width="50" height="50" relative="1" as="geometry">
            <mxPoint x="440" y="300" as="sourcePoint" />
            <mxPoint x="490" y="250" as="targetPoint" />
            <Array as="points">
              <mxPoint x="300" y="180" />
              <mxPoint x="435" y="180" />
            </Array>
          </mxGeometry>
        </mxCell>
        <mxCell id="Of6g8ZKLSWK-I_6D6hID-19" value="" style="endArrow=classic;startArrow=classic;html=1;rounded=0;entryX=0.5;entryY=1;entryDx=0;entryDy=0;exitX=0.5;exitY=0;exitDx=0;exitDy=0;" parent="Of6g8ZKLSWK-I_6D6hID-1" source="Of6g8ZKLSWK-I_6D6hID-8" target="Of6g8ZKLSWK-I_6D6hID-5" edge="1">
          <mxGeometry width="50" height="50" relative="1" as="geometry">
            <mxPoint x="440" y="430" as="sourcePoint" />
            <mxPoint x="490" y="380" as="targetPoint" />
          </mxGeometry>
        </mxCell>
        <mxCell id="Of6g8ZKLSWK-I_6D6hID-20" value="" style="endArrow=classic;startArrow=classic;html=1;rounded=0;entryX=0.5;entryY=1;entryDx=0;entryDy=0;exitX=0.5;exitY=0;exitDx=0;exitDy=0;" parent="Of6g8ZKLSWK-I_6D6hID-1" source="Of6g8ZKLSWK-I_6D6hID-10" target="Of6g8ZKLSWK-I_6D6hID-8" edge="1">
          <mxGeometry width="50" height="50" relative="1" as="geometry">
            <mxPoint x="310" y="330" as="sourcePoint" />
            <mxPoint x="310" y="290" as="targetPoint" />
          </mxGeometry>
        </mxCell>
        <mxCell id="Of6g8ZKLSWK-I_6D6hID-21" value="" style="endArrow=classic;startArrow=classic;html=1;rounded=0;entryX=0.5;entryY=1;entryDx=0;entryDy=0;exitX=0.5;exitY=0;exitDx=0;exitDy=0;" parent="Of6g8ZKLSWK-I_6D6hID-1" source="Of6g8ZKLSWK-I_6D6hID-11" target="Of6g8ZKLSWK-I_6D6hID-10" edge="1">
          <mxGeometry width="50" height="50" relative="1" as="geometry">
            <mxPoint x="310" y="450" as="sourcePoint" />
            <mxPoint x="310" y="410" as="targetPoint" />
          </mxGeometry>
        </mxCell>
        <mxCell id="Of6g8ZKLSWK-I_6D6hID-22" value="" style="endArrow=classic;startArrow=classic;html=1;rounded=0;exitX=0.5;exitY=1;exitDx=0;exitDy=0;entryX=0.5;entryY=0;entryDx=0;entryDy=0;" parent="Of6g8ZKLSWK-I_6D6hID-1" source="Of6g8ZKLSWK-I_6D6hID-11" target="Of6g8ZKLSWK-I_6D6hID-12" edge="1">
          <mxGeometry width="50" height="50" relative="1" as="geometry">
            <mxPoint x="440" y="700" as="sourcePoint" />
            <mxPoint x="490" y="650" as="targetPoint" />
          </mxGeometry>
        </mxCell>
        <mxCell id="Of6g8ZKLSWK-I_6D6hID-23" value="" style="endArrow=classic;startArrow=classic;html=1;rounded=0;entryX=0.5;entryY=1;entryDx=0;entryDy=0;exitX=0.5;exitY=0;exitDx=0;exitDy=0;" parent="Of6g8ZKLSWK-I_6D6hID-1" source="Of6g8ZKLSWK-I_6D6hID-13" target="Of6g8ZKLSWK-I_6D6hID-12" edge="1">
          <mxGeometry width="50" height="50" relative="1" as="geometry">
            <mxPoint x="440" y="700" as="sourcePoint" />
            <mxPoint x="490" y="650" as="targetPoint" />
          </mxGeometry>
        </mxCell>
      </root>
    </mxGraphModel>
  </diagram>
</mxfile>
